<svg xmlns="http://www.w3.org/2000/svg" width="256" height="256"><path fill="#1976D2" fill-opacity=".016" fill-rule="evenodd" d="M0 128.004v128.004l128.25-.254 128.25-.254.254-127.75L257.008 0H0zm.485.496c0 70.4.119 99.053.265 63.672.146-35.38.146-92.98 0-128C.604 29.153.485 58.1.485 128.5"/><path fill="#1976D2" fill-opacity=".055" fill-rule="evenodd" d="M119 2c0 .55-.677 1-1.504 1-1.732 0-6.629 2.518-11.081 5.698-1.692 1.208-4.278 4.512-5.746 7.342C98.327 20.554 98 22.345 98 30.654c0 8.899 1.867 18.267 4.145 20.796.47.522.855 1.93.855 3.128 0 1.197.675 2.737 1.5 3.422s1.5 2.035 1.5 3c0 .965.675 2.315 1.5 3s1.5 1.865 1.5 2.622c0 .758.401 1.378.892 1.378.49 0 1.174 1.125 1.519 2.5s1.069 2.5 1.608 2.5c.54 0 .981.575.981 1.279 0 .703 2.475 4.997 5.5 9.542s5.5 8.647 5.5 9.114c0 .468.623 1.09 1.385 1.383 1.717.659 5.615-1.957 5.615-3.768 0-.735.604-1.568 1.342-1.851.739-.284 2.11-2.132 3.047-4.107.938-1.976 2.134-3.592 2.658-3.592s.953-.675.953-1.5.441-1.5.981-1.5c.539 0 1.263-1.125 1.608-2.5.345-1.375.949-2.5 1.342-2.5.393 0 1.711-1.912 2.929-4.25 1.219-2.338 2.618-4.925 3.11-5.75 2.166-3.632 7.03-14.792 7.03-16.129 0-.809.521-1.992 1.158-2.629.737-.737 1.183-5.441 1.229-12.95l.071-11.792-3.479-5.285c-2.745-4.169-4.762-5.91-9.558-8.25C143.078 4.334 139.59 3 138.671 3 137.752 3 137 2.55 137 2c0-.593-3.667-1-9-1s-9 .407-9 1M56.058 27.685c-1.893.259-4.355 1.11-5.472 1.893-1.117.782-2.76 1.422-3.651 1.422-2.026 0-12.528 9.906-13.907 13.118-.563 1.31-1.419 3.057-1.902 3.882-1.919 3.277-4.359 12.961-3.821 15.164C28.459 67.88 30.51 73 31.245 73c.415 0 .755.693.755 1.539 0 2.179 8.931 10.605 13.59 12.821 2.15 1.023 4.585 2.263 5.41 2.756.825.493 2.175 1.162 3 1.487.825.325 2.85 1.188 4.5 1.92C66.96 97.271 68.969 98 70.842 98c1.122 0 2.318.45 2.658 1 .34.55 1.912 1 3.494 1 1.582 0 4.143.521 5.691 1.157 1.548.637 5.74 1.518 9.315 1.959 3.575.441 7.693 1.089 9.152 1.44 3.43.827 4.335-1.669 2.789-7.691-.616-2.401-1.478-7.065-1.915-10.365-.438-3.3-1.297-7.267-1.911-8.815C99.502 76.137 99 73.576 99 71.994c0-1.582-.45-3.154-1-3.494-.55-.34-1-1.476-1-2.525 0-1.859-1.766-6.585-4.598-12.306-.771-1.557-1.402-3.47-1.402-4.25 0-.78-.42-1.419-.933-1.419-.513 0-1.243-.978-1.622-2.173-.819-2.581-1.545-3.522-7.445-9.652-2.475-2.571-6-5.463-7.833-6.426-3.568-1.875-11.496-2.831-17.109-2.064m133.501 1.847c-1.068.807-2.787 1.468-3.822 1.468-1.034 0-2.507.563-3.274 1.25-3.269 2.932-4.433 3.75-5.336 3.75-1.149 0-7.065 7.929-10.072 13.5-1.187 2.2-2.531 4.675-2.985 5.5-1.988 3.606-4.07 9.22-4.07 10.975 0 1.049-.402 2.156-.894 2.46-.492.304-1.107 2.243-1.365 4.309-.259 2.066-.946 5.106-1.525 6.756-1.985 5.648-3.402 12.002-4.089 18.333-.854 7.876.148 8.71 7.966 6.63 2.974-.792 7.559-1.445 10.189-1.451 2.63-.007 6.398-.687 8.372-1.512 1.975-.825 4.634-1.5 5.909-1.5 1.275 0 2.597-.45 2.937-1 .34-.55 1.536-1 2.658-1 2.001 0 6.558-1.707 12.173-4.561 1.557-.792 3.47-1.439 4.25-1.439.78 0 1.419-.42 1.419-.933 0-.513.978-1.243 2.173-1.622 2.471-.784 3.459-1.529 8.629-6.504 6.283-6.046 7.715-8.259 9.11-14.073 2.978-12.414-3.673-26.68-15.912-34.131-1.925-1.173-3.725-2.384-4-2.692-.553-.619-13.911-4.085-15.5-4.022-.55.023-1.874.701-2.941 1.509M15.34 98.978c-2.837 1.627-6.212 4.434-7.5 6.236C4.529 109.852 2 114.736 2 116.496c0 .827-.45 1.504-1 1.504-.593 0-1 3.667-1 9s.407 9 1 9c.55 0 1 .794 1 1.765 0 2.247 3.724 9.061 7.111 13.012 1.436 1.676 4.782 4.035 7.434 5.244 4.177 1.902 6.137 2.144 14.624 1.803 5.852-.235 10.29-.883 11.016-1.609.668-.668 2.389-1.215 3.824-1.215s3.482-.661 4.55-1.468c1.067-.808 2.665-1.483 3.55-1.5 2.235-.044 11.993-5.301 20.671-11.137 4.004-2.692 7.539-4.895 7.856-4.895.317 0 2.281-1.35 4.364-3 2.083-1.65 4.286-3 4.894-3 2.196 0 1.037-3.297-2.144-6.102-1.787-1.576-3.635-2.873-4.106-2.882-.471-.009-2.561-1.366-4.644-3.016s-4.091-3-4.461-3c-.37 0-2.147-1.125-3.95-2.5-1.803-1.375-3.775-2.5-4.384-2.5-.608 0-1.465-.562-1.905-1.25-.8-1.25-4.281-3.076-11.8-6.19-2.2-.911-4.781-2.085-5.736-2.608-.955-.524-2.53-.966-3.5-.984-.97-.017-2.638-.692-3.705-1.5-1.395-1.055-4.632-1.465-11.5-1.459-8.754.009-9.994.259-14.719 2.969m195.16 1.652c-4.58 1.6-8.333 3.206-10.5 4.492a27.874 27.874 0 0 1-3 1.508c-5.531 2.277-14.556 6.872-14.833 7.553-.184.449-.708.817-1.165.817-.457 0-4.508 2.475-9.002 5.5-4.494 3.025-8.555 5.5-9.026 5.5-1.66 0-2.027 1.943-.758 4.016.706 1.154 2.859 3.068 4.784 4.253 1.925 1.186 4.047 2.623 4.715 3.194 3.384 2.888 7.315 5.437 9.535 6.183.963.323 1.75.954 1.75 1.403 0 .449 1.012 1.132 2.25 1.518 1.238.387 2.475.979 2.75 1.318.275.338 2.3 1.452 4.5 2.475 2.2 1.023 4.675 2.263 5.5 2.756.825.493 2.175 1.152 3 1.463.825.312 2.281.984 3.236 1.494.955.51 2.305.93 3 .933.695.004 2.614.719 4.264 1.59 2.147 1.134 6.129 1.627 14 1.734 9.45.128 11.423-.13 14-1.834 4.065-2.686 9.5-7.964 9.5-9.225 0-.564.675-1.586 1.5-2.271.825-.685 1.5-2.225 1.5-3.422 0-1.198.563-2.741 1.25-3.429 1.708-1.71 1.705-18.594-.003-20.302-.686-.686-1.247-2.227-1.247-3.425 0-1.197-.675-2.737-1.5-3.422s-1.5-1.773-1.5-2.419c0-1.709-6.94-8.038-10.904-9.944-4.302-2.069-21.68-2.073-27.596-.007m-91.57 14.62c-5.796 4.458-8.174 9.068-7.589 14.717.254 2.457.957 4.632 1.561 4.834.604.201 1.098.871 1.098 1.489 0 .618 1.688 2.597 3.75 4.397 3.359 2.933 4.393 3.277 9.921 3.294 6.006.018 6.294-.103 10.75-4.56 4.419-4.419 4.579-4.788 4.579-10.567 0-7.083-2.684-11.445-9.1-14.789-5.774-3.009-9.946-2.679-14.97 1.185M93.5 151.976c-1.1.486-3.702.915-5.782.954-2.08.038-5.398.745-7.372 1.57-1.975.825-4.998 1.514-6.718 1.532-1.72.017-4.002.692-5.069 1.5-1.068.807-2.986 1.468-4.264 1.468-1.277 0-3.104.384-4.059.853-.955.469-3.536 1.655-5.736 2.634-8.097 3.607-10.998 5.036-12.208 6.013-.68.55-3.003 2.35-5.161 4-2.158 1.65-5.374 5.192-7.146 7.872-3.02 4.564-3.223 5.429-3.223 13.702 0 6.805.371 9.202 1.619 10.45.89.89 1.619 2.332 1.619 3.203 0 1.789 4.506 8.115 7.156 10.045.96.7 2.496 2.023 3.413 2.939C42.947 223.09 48.653 226 50.937 226c1.07 0 2.223.45 2.563 1 .34.55 3.04 1 6 1s5.66-.45 6-1c.34-.55 1.684-1 2.988-1 1.303 0 3.044-.675 3.869-1.5.825-.825 1.87-1.508 2.322-1.517C76.34 222.948 88 208.33 88 206.282c0-.571.675-1.597 1.5-2.282s1.5-2.053 1.5-3.041.633-3.071 1.407-4.628c2.277-4.58 3.351-7.498 4.907-13.331.807-3.025 2.005-7.525 2.662-10 .657-2.475 1.584-7.425 2.058-11 .475-3.575.999-7.4 1.165-8.5.254-1.69-.318-2.032-3.699-2.204-2.2-.112-4.9.194-6 .68m56.813 2.65c-.343.894-.104 3.064.532 4.821.635 1.757 1.155 5.09 1.155 7.406s.675 5.827 1.5 7.801c.825 1.975 1.5 4.834 1.5 6.354 0 1.52.672 4.052 1.494 5.628.821 1.575 1.496 3.85 1.5 5.055.003 1.205.456 2.469 1.006 2.809.55.34 1 1.311 1 2.158 0 1.485 2.245 7.245 4.031 10.342a335.67 335.67 0 0 1 2.945 5.335c3.186 5.874 10.891 12.987 17.301 15.974 3.178 1.48 6.328 2.693 7 2.696 1.955.008 10.781-3.064 16.317-5.679 5.351-2.528 14.406-11.078 14.406-13.602 0-.814.675-2.039 1.5-2.724s1.5-2.063 1.5-3.063c0-1.001.45-2.097 1-2.437.55-.34 1-3.49 1-7s-.45-6.66-1-7c-.55-.34-1-1.459-1-2.488 0-1.028-.562-2.483-1.25-3.233-.687-.75-1.74-2.244-2.339-3.321-1.49-2.681-15.525-13.445-17.539-13.452-.895-.003-2.187-.681-2.872-1.506s-2.202-1.514-3.372-1.532c-1.171-.017-3.002-.692-4.069-1.5-1.068-.807-2.761-1.468-3.764-1.468-1.002 0-2.604-.397-3.559-.882-2.438-1.24-9.83-3.14-15.736-4.046-2.75-.422-6.267-1.286-7.815-1.92-4.32-1.768-11.619-1.488-12.372.474m-26.902 10.624c-3.931 4.389-9.295 12.46-12.93 19.454-.916 1.762-2.299 3.73-3.073 4.372-.774.643-1.408 1.976-1.408 2.963 0 .987-.387 1.944-.86 2.128-1.184.458-7.14 13.565-7.14 15.712 0 .956-.661 2.612-1.468 3.68-2.237 2.957-2.111 21.587.17 25.226 7.129 11.374 11.982 14.344 24.507 15 10.529.551 19.285-.421 21.22-2.357.786-.785 1.798-1.429 2.25-1.429 1.481-.003 8.882-7.433 10.368-10.41 1.906-3.818 2.068-25.876.203-27.74-.687-.687-1.25-2.102-1.25-3.145 0-1.042-.63-3.09-1.4-4.55-.77-1.46-2.901-5.804-4.737-9.654-1.835-3.85-4.898-9.475-6.806-12.5a1071.414 1071.414 0 0 1-5.013-8.015c-5.592-9.112-7.66-11.985-8.626-11.985-.603 0-2.406 1.463-4.007 3.25"/><path fill="#1976D2" fill-opacity=".241" fill-rule="evenodd" d="M121.211 2.538c-.71.804-2.215 1.462-3.346 1.462-1.131 0-3.476.788-5.211 1.75C108.441 8.088 101 15.378 101 17.168c0 .788-.459 1.891-1.021 2.453C98.343 21.257 97.7 33.049 98.977 38c.639 2.475 1.391 5.625 1.673 7 .282 1.375 1.111 3.85 1.844 5.5 4.357 9.815 7.724 16.517 8.554 17.03.524.323.952 1.461.952 2.529 0 1.068.429 1.941.953 1.941s1.691 1.554 2.592 3.454c.902 1.9 2.273 3.98 3.047 4.622.774.643 1.408 1.719 1.408 2.391 0 .672 1.128 2.529 2.506 4.127 1.378 1.599 2.759 3.693 3.067 4.656.309.962 1.161 1.75 1.894 1.75 1.212 0 13.317-15.445 14.891-19 .365-.825 1.531-2.85 2.591-4.5C147.683 65.242 153 54.54 153 53.293c0-.576.675-1.608 1.5-2.293s1.5-2.45 1.5-3.922c0-1.473.542-3.22 1.204-3.882.703-.703 1.379-5.201 1.624-10.807.367-8.39.144-10.156-1.767-13.982-1.203-2.409-3.499-5.691-5.101-7.293C148.569 7.723 141.343 4 138.153 4c-1.219 0-2.475-.675-2.791-1.5-.796-2.073-12.317-2.042-14.151.038M56.5 28.627c-3.522.517-13.321 5.186-15.491 7.382-9.212 9.319-13.881 21.455-11.632 30.237.669 2.611 1.757 5.288 2.419 5.95.662.662 1.216 1.676 1.231 2.254.032 1.249 6.119 7.948 8.093 8.906.759.369 3.63 2.029 6.38 3.689 2.75 1.661 5.675 3.259 6.5 3.551.825.292 2.85 1.121 4.5 1.842 12.657 5.528 21.004 7.776 35.896 9.667 9.098 1.155 10.523.535 8.736-3.799-.637-1.543-1.585-5.731-2.107-9.306-2.035-13.938-2.929-18.304-3.957-19.332-.587-.587-1.082-2.215-1.1-3.618-.017-1.402-.692-3.424-1.5-4.491C93.661 60.491 93 58.867 93 57.95c0-1.966-5.021-11.63-9.235-17.777-4.224-6.16-12.554-11.247-19.092-11.66-2.845-.179-6.523-.128-8.173.114m133 2.053c-7.934 2.051-16.29 9.387-20.95 18.392-6.156 11.9-7.55 15.069-7.55 17.172 0 1.296-.403 2.783-.895 3.306-.492.523-1.409 3.2-2.039 5.95-.629 2.75-1.844 7.7-2.7 11-.855 3.3-1.78 8.645-2.056 11.878l-.501 5.878 4.846-.763c2.665-.419 7.77-1.117 11.345-1.55 8.784-1.064 16.206-2.749 17.409-3.952.545-.545 2.011-.991 3.257-.991 4.966 0 21.573-8.451 27.812-14.154 8.868-8.105 9.84-10.321 9.279-21.153-.321-6.203-1.072-10.331-2.309-12.693-2.61-4.983-11.165-13.125-16.448-15.655-4.509-2.16-14.747-3.634-18.5-2.665M17.26 98.879C10.175 102.514 3 112.057 3 117.847c0 1.219-.675 2.475-1.5 2.791-2.078.798-2.078 10.927 0 13.005.825.825 1.5 2.768 1.5 4.318 0 4.047 7.759 14.19 12.907 16.873 3.404 1.775 5.819 2.16 13.374 2.131 6.1-.024 10.065-.519 11.719-1.465 1.375-.786 3.519-1.445 4.764-1.465 1.245-.019 3.045-.458 4-.974.955-.516 5.111-2.506 9.236-4.421 4.125-1.915 9.207-4.642 11.294-6.061 2.087-1.418 4.07-2.579 4.406-2.579.336 0 2.086-1.125 3.889-2.5s3.645-2.507 4.094-2.516c.449-.009 2.309-1.331 4.132-2.938 1.823-1.608 3.848-3.102 4.5-3.322.874-.294.824-.836-.191-2.066C89.573 124.78 66.381 109.26 61 106.5c-1.925-.988-4.694-2.404-6.154-3.148-1.46-.743-3.523-1.352-4.584-1.352-1.061 0-2.249-.321-2.641-.713-4.16-4.159-23.896-5.725-30.361-2.408M222 100.038c-7.556.711-14.614 2.245-17.784 3.864-.944.482-3.516 1.714-5.716 2.737-2.2 1.024-4.225 2.086-4.5 2.361-.508.508-6.266 3.321-9 4.397-.825.325-2.383 1.156-3.462 1.847-3.25 2.081-18.013 11.954-18.379 12.291-.66.607.987 4.465 1.906 4.465.768 0 10.62 6.703 14.501 9.866 1.051.857 11.041 6.508 14.934 8.448a90.32 90.32 0 0 1 3.5 1.848 26.605 26.605 0 0 0 3 1.423c.825.314 2.694 1.212 4.154 1.993 1.46.782 3.733 1.422 5.05 1.422 1.318 0 2.958.563 3.645 1.25 2.035 2.036 19.802 1.657 24.344-.52 4.294-2.058 9.405-6.888 10.311-9.744.347-1.092 1.05-1.986 1.563-1.986.513 0 .949-1.238.968-2.75.02-1.512.679-3.875 1.465-5.25.802-1.403 1.429-5.132 1.429-8.5 0-3.368-.627-7.097-1.429-8.5-.786-1.375-1.445-3.314-1.465-4.31-.041-2.132-6.105-10.345-9.305-12.603-1.871-1.321-12.072-5.438-12.192-4.921-.021.091-3.413.483-7.538.872m-102.231 15.523c-4.078 2.671-7.769 8.845-7.769 12.995 0 3.316 2.616 7.983 6.5 11.595 2.553 2.375 3.86 2.795 8.776 2.82 5.523.028 5.973-.167 10.25-4.445 4.278-4.277 4.473-4.727 4.445-10.25-.025-4.935-.439-6.213-2.846-8.776-6.339-6.753-12.992-8.107-19.356-3.939M95.5 153c-1.65.42-5.111.817-7.691.882-2.58.065-4.953.542-5.273 1.06-.321.518-2.71 1.224-5.309 1.569-2.6.344-5.627 1.007-6.727 1.473-1.1.465-4.475 1.627-7.5 2.582-10.032 3.166-23.704 10.465-27.81 14.846-5.903 6.298-7.718 10.879-7.515 18.963.291 11.531 6.252 21.32 17.055 28.007 2.327 1.44 5.274 2.618 6.55 2.618 1.276 0 2.821.501 3.433 1.113 1.063 1.063 2.951.958 12.7-.703 5.664-.965 15.984-11.542 20.402-20.91 1.816-3.85 3.725-7.781 4.243-8.736.518-.955.942-2.553.942-3.55 0-.998.504-2.318 1.12-2.934 1.089-1.089 1.581-2.856 3.972-14.28.633-3.025 1.512-6.4 1.953-7.5.442-1.1 1.074-5.037 1.407-8.75.665-7.431.663-7.433-5.952-5.75m57.061 9.25c.334 4.537 1.244 9.947 2.023 12.02.779 2.074 1.416 5.085 1.416 6.691 0 1.607.4 3.168.89 3.471.489.302 1.107 2.016 1.374 3.809 1.207 8.111 9.452 24.909 15.302 31.177 6.808 7.294 10.524 9.041 19.047 8.955 5.879-.06 8.254-.629 13.693-3.278 7.208-3.512 14.347-10.894 17.014-17.595 2.926-7.352 3.357-12.994 1.415-18.501-1.289-3.655-7.578-12.999-8.749-12.999-.371 0-1.982-1.14-3.58-2.534-1.599-1.393-5.831-3.915-9.406-5.603-3.575-1.688-7.694-3.698-9.154-4.466-1.46-.768-3.733-1.397-5.05-1.397-1.318 0-2.823-.403-3.346-.895-.994-.936-7.334-2.574-16.151-4.174-2.861-.519-6.378-1.391-7.815-1.937-1.438-.547-4.17-.994-6.072-.994h-3.459zm-29.477 4.644c-1.696 2.142-3.084 4.354-3.084 4.917 0 .562-.338 1.172-.75 1.356-.791.351-7.25 9.568-7.25 10.345 0 .249-1.697 3.273-3.77 6.72-5.557 9.239-10.23 19.627-10.23 22.743 0 1.049-.45 2.185-1 2.525-1.603.99-1.234 18.724.46 22.12 3.724 7.464 9.746 12.394 18.611 15.235 4.397 1.41 17.583 1.513 18.429.145.34-.55 1.725-1 3.079-1 2.723 0 9.156-3.726 12.349-7.153 4.745-5.093 6.072-9.397 6.072-19.687 0-7.049-.41-10.319-1.468-11.719-.808-1.067-1.483-2.858-1.5-3.98-.018-1.121-.882-3.705-1.921-5.742a140.444 140.444 0 0 1-3.478-7.462c-.875-2.066-2.929-6.007-4.565-8.757-1.636-2.75-3.712-6.442-4.613-8.204-.902-1.762-2.273-3.73-3.047-4.372-.774-.643-1.408-1.583-1.408-2.088 0-1.167-6.274-9.745-7.166-9.797-.366-.021-2.054 1.713-3.75 3.855"/><path fill="#1976D2" fill-opacity=".105" fill-rule="evenodd" d="M126 2.406c0 .933-1.715 1.642-5.091 2.106-2.799.386-6.266 1.311-7.703 2.056-3.806 1.975-11.201 9.416-11.238 11.308-.017.893-.692 2.498-1.5 3.565-1.946 2.574-1.925 15.136.032 18.559.786 1.375 1.445 3.651 1.465 5.059.019 1.407.696 3.432 1.503 4.5.808 1.067 1.483 2.661 1.5 3.541.018.88 1.6 4.48 3.515 8 1.916 3.52 3.794 7.075 4.173 7.9.379.825 2.411 4.119 4.516 7.321 2.106 3.201 3.828 6.053 3.828 6.336 0 .284 1.402 2.468 3.115 4.854 3.564 4.963 4.855 4.905 8.082-.36 1.23-2.008 3.264-4.771 4.52-6.141 1.256-1.369 2.283-2.862 2.283-3.317 0-.454 1.014-2.259 2.253-4.01 3.917-5.536 6.505-10.403 10.331-19.433.99-2.337 2.164-4.25 2.608-4.25.445 0 .822-1.462.84-3.25.017-1.788.692-4.124 1.5-5.191 2.205-2.915 2.013-18.359-.282-22.728-3.82-7.271-11.588-12.951-19.553-14.298-2.091-.354-4.052-1.294-4.357-2.088-.728-1.9-6.34-1.934-6.34-.039M53 30.5c-.685.825-2.109 1.5-3.164 1.5-3.546 0-10.514 6.337-14.845 13.5-4.095 6.775-4.233 7.279-4.275 15.667l-.043 8.667 4.914 6.079c2.702 3.344 5.218 6.081 5.592 6.083.373.002 1.276.567 2.008 1.254 1.319 1.24 12.088 6.714 18.813 9.562 1.925.815 4.281 1.866 5.236 2.335.955.469 2.755.867 4 .885 1.245.017 3.138.692 4.205 1.5 1.068.807 3.543 1.475 5.5 1.483 1.958.008 5.359.664 7.559 1.456 2.2.793 6.411 1.461 9.357 1.485 4.734.039 5.268-.16 4.595-1.706-.419-.963-1.066-4.675-1.437-8.25-.372-3.575-1.202-7.483-1.845-8.684-.644-1.202-1.184-4.127-1.202-6.5-.017-2.374-.692-5.19-1.5-6.257C95.661 69.491 95 67.605 95 66.368c0-1.238-.45-2.528-1-2.868-.55-.34-1.002-1.379-1.004-2.309-.002-.93-1.35-4.391-2.996-7.691s-2.994-6.562-2.996-7.25c-.002-.687-.424-1.25-.937-1.25-.513 0-1.214-.889-1.559-1.976-1.03-3.243-6.889-8.608-12.456-11.404C65.879 28.519 55.166 27.89 53 30.5m136.324 1.277c-1.746.186-3.714.988-4.372 1.781-.658.793-1.749 1.442-2.423 1.442-1.803 0-10.24 8.872-12.035 12.654-.851 1.794-1.985 3.532-2.521 3.863-.535.33-.973 1.474-.973 2.542 0 1.068-.408 1.941-.907 1.941-.499 0-1.661 2.587-2.582 5.75-.922 3.162-2.314 7.228-3.094 9.034-.779 1.806-1.433 4.506-1.452 6-.02 1.494-.679 3.841-1.465 5.216s-1.445 4.386-1.465 6.691c-.019 2.305-.485 4.469-1.035 4.809-.55.34-1 2.584-1 4.987v4.368l5.75-.473c10.379-.854 14.195-1.484 14.786-2.44.32-.518 2.468-.956 4.773-.974 2.305-.017 5.065-.692 6.132-1.5 1.068-.807 2.954-1.468 4.191-1.468 1.238 0 2.528-.45 2.868-1 .34-.55 1.616-1 2.837-1 1.22 0 3.106-.608 4.19-1.351 1.085-.743 3.211-1.651 4.723-2.019 1.512-.367 2.75-1.11 2.75-1.649 0-.54.795-.981 1.767-.981 2.372 0 11.803-8.358 14.814-13.129 2.03-3.215 2.419-5.099 2.419-11.71 0-6.904-.387-8.609-3.128-13.77-3.176-5.984-8.085-11.174-12.779-13.513-1.426-.71-3.268-1.815-4.093-2.456-1.598-1.239-11.403-2.207-16.676-1.645M20.544 98.929c-.364.589-1.454 1.071-2.423 1.071-2.781 0-10.044 6.84-12.077 11.373-1.018 2.27-2.105 5.901-2.416 8.07-.311 2.168-1.254 4.328-2.096 4.799C-.431 125.341-.506 130 1.439 130c.952 0 1.672 1.605 2.13 4.75 1.153 7.927 5.396 14.252 12.661 18.876 3.135 1.995 5.02 2.374 11.812 2.374 7.377 0 15.723-1.683 20.194-4.072.955-.51 2.588-.928 3.628-.928s2.451-.675 3.136-1.5 2.315-1.5 3.622-1.5c1.308 0 2.378-.441 2.378-.981 0-.539 1.125-1.263 2.5-1.608 1.375-.345 2.5-1.029 2.5-1.519 0-.491.643-.892 1.429-.892.785 0 2.023-.588 2.75-1.306.726-.718 2.896-2.181 4.821-3.25 1.925-1.069 3.86-2.506 4.3-3.194.44-.687 1.268-1.25 1.84-1.25 1.706 0 8.816-5.401 8.839-6.715.011-.668-.966-1.743-2.172-2.388-1.206-.646-3.339-2.237-4.74-3.535-1.4-1.299-2.947-2.362-3.436-2.362-.489 0-4.093-2.17-8.01-4.821C64.034 109.042 52.291 103 49.893 103c-.796 0-2.336-.613-3.42-1.363-2.663-1.839-7.395-2.755-17.12-3.312-5.202-.297-8.387-.079-8.809.604M217 101.5c-1.925.741-4.594 1.382-5.93 1.424-1.337.042-7.463 2.551-13.613 5.576-6.151 3.025-11.695 5.5-12.32 5.5s-1.137.398-1.137.883c0 .486-.787 1.172-1.75 1.525-3.237 1.187-7.25 3.694-7.25 4.53 0 .456-.787 1.093-1.75 1.416-2.132.716-4.952 2.536-7.695 4.966-2.052 1.817-2.052 1.822-.055 3.216 1.1.768 2.553 1.87 3.228 2.449.676.58 3.376 2.483 6 4.23 2.625 1.748 5.132 3.764 5.572 4.481.44.717 1.677 1.304 2.75 1.304 1.072 0 1.95.398 1.95.883 0 .486.787 1.148 1.75 1.471.963.324 2.425 1.015 3.25 1.537 4.501 2.847 18.922 9.113 21.037 9.141 1.355.017 3.337.692 4.404 1.5 2.511 1.899 18.772 2.07 20.753.218.735-.687 2.919-2.055 4.852-3.04 3.5-1.781 8.954-9.304 8.954-12.35 0-.857.718-3.07 1.595-4.919 2.554-5.381 1.24-14.713-3.371-23.941-2.027-4.056-8.267-10.499-10.177-10.506-.851-.004-2.836-.679-4.411-1.5-3.496-1.823-11.893-1.82-16.636.006M123.5 115c-.34.55-1.44 1-2.444 1-1.73 0-3.954 2.577-6.789 7.864-1.509 2.815-1.683 8.136-.267 8.136.55 0 1 .867 1 1.927 0 2.75 6.562 7.795 10.861 8.35 11.54 1.491 19.7-12.609 12.647-21.855-3.958-5.19-13.108-8.496-15.008-5.422m-27 39.06c-1.65.387-5.111.757-7.691.822-2.58.065-4.969.568-5.309 1.118-.34.55-2.279 1.003-4.309 1.006-2.03.004-4.98.679-6.555 1.5-1.576.822-3.826 1.508-5 1.526-1.175.017-3.01.692-4.077 1.5-1.068.807-2.868 1.482-4 1.499-1.133.017-4.309 1.138-7.059 2.491-2.75 1.353-5.385 2.464-5.856 2.469-.471.005-2.721 1.452-5 3.215-10.298 7.966-14.048 14.695-13.312 23.885.27 3.373.981 6.622 1.58 7.221.598.598 1.088 2.123 1.088 3.388 0 1.265.461 2.3 1.025 2.3.563 0 1.419 1.038 1.901 2.306 1.259 3.31 6.004 8.694 7.663 8.694.776 0 1.411.348 1.411.773 0 1.145 5.991 3.984 10 4.737 6.549 1.231 16.061.273 18.762-1.891 7.183-5.752 11.76-11.584 16.431-20.936 2.462-4.929 6.811-17.431 6.839-19.66.017-1.388.692-3.397 1.5-4.464.807-1.068 1.482-3.768 1.5-6 .017-2.233.692-4.933 1.5-6 1.509-1.995 2.064-11.138.718-11.822-.412-.209-2.1-.064-3.75.323m57.12 8.079c.359 4.048 1.042 8.119 1.517 9.045.475.927.879 3.402.898 5.5.02 2.099.679 4.941 1.465 6.316s1.445 3.461 1.465 4.636c.019 1.174.707 3.424 1.529 5 .821 1.575 1.496 3.615 1.5 4.533.007 1.865 3.093 8.147 4.256 8.664.412.184.75 1.141.75 2.128 0 .987.675 2.354 1.5 3.039s1.5 1.762 1.5 2.394c0 1.666 8.44 10.606 10.012 10.606.732 0 2.151.742 3.153 1.649 2.447 2.215 15.496 2.163 19.809-.077 1.664-.865 4.489-2.335 6.276-3.269 4.082-2.13 10.653-9.078 11.401-12.053.311-1.238.967-2.25 1.457-2.25.491 0 .926-1.238.968-2.75.042-1.512.648-4.325 1.347-6.25 2.138-5.89-1.388-14.259-9.058-21.5-5.843-5.516-5.986-5.614-13.865-9.402-3.85-1.852-7.781-3.756-8.736-4.232-.955-.476-2.98-.88-4.5-.898-1.52-.017-3.638-.692-4.705-1.5-1.068-.807-3.235-1.468-4.816-1.468s-3.825-.508-4.986-1.13c-1.161-.621-4.844-1.538-8.184-2.038-3.34-.499-7.543-1.166-9.34-1.481l-3.268-.574zM123.5 168c-.349 1.1-1.054 2-1.567 2-.513 0-.933.405-.933.9 0 .494-1.625 3.307-3.611 6.25-1.987 2.942-4.031 6.25-4.543 7.35-1.317 2.827-3.234 6.055-4.539 7.643-2.096 2.552-6.307 11.153-6.307 12.883 0 .951-.675 2.289-1.5 2.974s-1.5 2.675-1.5 4.422c0 1.748-.544 3.722-1.208 4.386-1.736 1.736-1.341 15.838.567 20.293 2.92 6.815 13.291 14.899 19.113 14.899 1.325 0 2.688.45 3.028 1 .789 1.277 11.5 1.319 11.5.045 0-.525 1.688-1.232 3.75-1.572 5.054-.832 7.431-2.092 11.999-6.361 6.072-5.674 7.251-8.961 7.251-20.207 0-5.383-.415-10.044-.923-10.357-.508-.314-1.24-2.014-1.627-3.777-.387-1.763-1.031-3.895-1.43-4.738-.868-1.833-3.574-7.929-4.454-10.033-.345-.825-1.942-3.75-3.548-6.5a480.858 480.858 0 0 1-5.105-8.977c-1.202-2.187-3.938-6.35-6.081-9.25-4.101-5.552-7.22-6.777-8.332-3.273"/></svg>